Zombieland (2009) R5 DVDRip XviD-MAX (English Best Quality) 
http://torrents.thepiratebay.org/5182417/Zombieland_(2009)_DVDRip_XviD-MAX.5182417.TPB.torrent

Zombieland (2009) TS XviD-MAX

Format                           : AVI
Format/Info                      : Audio Video Interleave
Format profile                   : OpenDML
File size                        : 1.37 GiB
Duration                         : 1h 22mn
Overall bit rate                 : 2 372 Kbps
Writing application              : VirtualDubMod 1.5.10.2 (build 2542/release)
Writing library                  : VirtualDubMod build 2542/release
Original source form             : MAX TORRENTZ
Copyright                        : SIGISMUNT

Video
ID                               : 0
Format                           : MPEG-4 Visual
Format profile                   : AdvancedSimple[@]L5
Format settings, BVOP            : Yes
Format settings, QPel            : No
Format settings, GMC             : No warppoints
Format settings, Matrix          : Custom
Muxing mode                      : Packed bitstream
Codec ID                         : XVID
Codec ID/Hint                    : XviD
Duration                         : 1h 22mn
Bit rate                         : 2 171 Kbps
Width                            : 704 pixels
Height                           : 336 pixels
Display aspect ratio             : 2.095
Frame rate                       : 23.976 fps
Resolution                       : 24 bits
Colorimetry                      : 4:2:0
Scan type                        : Progressive
Bits/(Pixel*Frame)               : 0.383
Stream size                      : 1.25 GiB (92%)
Writing library                  : XviD 1.2.1 (UTC 2008-12-04)

Audio
ID                               : 1
Format                           : MPEG Audio
Format version                   : Version 1
Format profile                   : Layer 3
Codec ID                         : 55
Codec ID/Hint                    : MP3
Duration                         : 1h 22mn
Bit rate mode                    : Constant
Bit rate                         : 192 Kbps
Channel(s)                       : 2 channels
Sampling rate                    : 48.0 KHz
Resolution                       : 16 bits
Stream size                      : 113 MiB (8%)
Alignment                        : Aligned on interleaves
Interleave, duration             : 24 ms (0.58 video frame)
Interleave, preload duration     : 192 ms

Screens: 
http://www.postimg.com/image/7000/6952.jpg 
http://www.postimg.com/image/7000/6953.jpg 
http://www.postimg.com/image/7000/6954.jpg 
http://www.postimg.com/image/7000/6955.jpg

ScreenCaps: 
http://www.postimg.com/image/7000/6956.jpg


